<svg width="45" height="77" viewBox="0 0 45 77" fill="none" xmlns="http://www.w3.org/2000/svg">
<path d="M21.12 50.68C20.8533 50.68 20.6267 50.5867 20.44 50.4C20.2533 50.2133 20.16 49.9867 20.16 49.72V41.92H12.48C12.2133 41.92 11.9867 41.8267 11.8 41.64C11.6133 41.4533 11.52 41.2267 11.52 40.96V38.84C11.52 38.5467 11.6133 38.32 11.8 38.16C11.9867 37.9733 12.2133 37.88 12.48 37.88H20.16V30.28C20.16 30.0133 20.2533 29.7867 20.44 29.6C20.6267 29.4133 20.8533 29.32 21.12 29.32H23.44C23.7333 29.32 23.96 29.4133 24.12 29.6C24.3067 29.7867 24.4 30.0133 24.4 30.28V37.88H32.08C32.3467 37.88 32.5733 37.9733 32.76 38.16C32.9467 38.32 33.04 38.5467 33.04 38.84V40.96C33.04 41.2267 32.9467 41.4533 32.76 41.64C32.5733 41.8267 32.3467 41.92 32.08 41.92H24.4V49.72C24.4 49.9867 24.3067 50.2133 24.12 50.4C23.96 50.5867 23.7333 50.68 23.44 50.68H21.12Z" fill="#27AE60"/>
</svg>
